<svg width="40" height="40" viewBox="0 0 40 40" fill="none" xmlns="http://www.w3.org/2000/svg">
<path d="M0 10C0 4.47715 4.47715 0 10 0H30C35.5228 0 40 4.47715 40 10V30C40 35.5228 35.5228 40 30 40H10C4.47715 40 0 35.5228 0 30V10Z" fill="#FDF2F8"/>
<path d="M20 13C20 12.4067 20.1759 11.8266 20.5056 11.3333C20.8352 10.8399 21.3038 10.4554 21.852 10.2284C22.4001 10.0013 23.0033 9.94189 23.5853 10.0576C24.1672 10.1734 24.7018 10.4591 25.1213 10.8787C25.5409 11.2982 25.8266 11.8328 25.9424 12.4147C26.0581 12.9967 25.9987 13.5999 25.7716 14.1481C25.5446 14.6962 25.1601 15.1648 24.6667 15.4944C24.1734 15.8241 23.5933 16 23 16M20 13C20 12.4067 19.8241 11.8266 19.4944 11.3333C19.1648 10.8399 18.6962 10.4554 18.1481 10.2284C17.5999 10.0013 16.9967 9.94189 16.4147 10.0576C15.8328 10.1734 15.2982 10.4591 14.8787 10.8787C14.4591 11.2982 14.1734 11.8328 14.0576 12.4147C13.9419 12.9967 14.0013 13.5999 14.2284 14.1481C14.4554 14.6962 14.8399 15.1648 15.3333 15.4944C15.8266 15.8241 16.4067 16 17 16M20 13V14M23 16C23.5933 16 24.1734 16.1759 24.6667 16.5056C25.1601 16.8352 25.5446 17.3038 25.7716 17.852C25.9987 18.4001 26.0581 19.0033 25.9424 19.5853C25.8266 20.1672 25.5409 20.7018 25.1213 21.1213C24.7018 21.5409 24.1672 21.8266 23.5853 21.9424C23.0033 22.0581 22.4001 21.9987 21.852 21.7716C21.3038 21.5446 20.8352 21.1601 20.5056 20.6667C20.1759 20.1734 20 19.5933 20 19M23 16H22M17 16C16.4067 16 15.8266 16.1759 15.3333 16.5056C14.8399 16.8352 14.4554 17.3038 14.2284 17.852C14.0013 18.4001 13.9419 19.0033 14.0576 19.5853C14.1734 20.1672 14.4591 20.7018 14.8787 21.1213C15.2982 21.5409 15.8328 21.8266 16.4147 21.9424C16.9967 22.0581 17.5999 21.9987 18.1481 21.7716C18.6962 21.5446 19.1648 21.1601 19.4944 20.6667C19.8241 20.1734 20 19.5933 20 19M17 16H18M20 19V18" stroke="#F6339A" stroke-width="2" stroke-linecap="round" stroke-linejoin="round"/>
<path d="M20 18C21.1046 18 22 17.1046 22 16C22 14.8954 21.1046 14 20 14C18.8954 14 18 14.8954 18 16C18 17.1046 18.8954 18 20 18Z" stroke="#F6339A" stroke-width="2" stroke-linecap="round" stroke-linejoin="round"/>
<path d="M20 18V30" stroke="#F6339A" stroke-width="2" stroke-linecap="round" stroke-linejoin="round"/>
<path d="M20 30C24.2 30 27 28.333 27 25C22.8 25 20 26.667 20 30Z" stroke="#F6339A" stroke-width="2" stroke-linecap="round" stroke-linejoin="round"/>
<path d="M20 30C15.8 30 13 28.333 13 25C17.2 25 20 26.667 20 30Z" stroke="#F6339A" stroke-width="2" stroke-linecap="round" stroke-linejoin="round"/>
</svg>
